<?xml version="1.0" encoding="UTF-8"?>
<svg id="Layer_2" xmlns="http://www.w3.org/2000/svg" viewBox="0 0 499.43 499.76">
  <defs>
    <style>
      .cls-1 {
        fill: #716ec7;
      }

      .cls-2 {
        fill: #00ac9d;
      }

      .cls-3 {
        fill: #003b9d;
      }

      .cls-4 {
        opacity: .4;
      }

      .cls-4, .cls-5, .cls-6, .cls-7, .cls-8, .cls-9, .cls-10 {
        fill: none;
      }

      .cls-4, .cls-5, .cls-7, .cls-9 {
        stroke-linecap: round;
        stroke-width: .78px;
      }

      .cls-4, .cls-7 {
        stroke: #1399d1;
      }

      .cls-4, .cls-7, .cls-9 {
        stroke-linejoin: round;
      }

      .cls-11 {
        fill: #e6b112;
      }

      .cls-5, .cls-6, .cls-8, .cls-10 {
        stroke-miterlimit: 10;
      }

      .cls-5, .cls-9 {
        stroke: #17baff;
      }

      .cls-12 {
        fill: #e9f6fe;
      }

      .cls-13 {
        fill: #fff;
      }

      .cls-14 {
        fill: #ffd245;
      }

      .cls-6, .cls-10 {
        stroke: #072232;
      }

      .cls-15 {
        isolation: isolate;
      }

      .cls-16 {
        fill: #00284a;
      }

      .cls-17 {
        fill: #072232;
      }

      .cls-18 {
        fill: #04131c;
      }

      .cls-19 {
        fill: #7875c7;
      }

      .cls-20 {
        fill: #008e9d;
      }

      .cls-8 {
        stroke: #e76f00;
      }

      .cls-10 {
        stroke-width: .92px;
      }

      .cls-21 {
        fill: #004a8a;
      }

      .cls-22 {
        fill: #e76f00;
      }

      .cls-23 {
        fill: #00549d;
      }

      .cls-24 {
        fill: #00599d;
      }

      .cls-25 {
        fill: #8f8bfb;
      }
    </style>
  </defs>
  <g id="OBJECTS">
    <g>
      <polyline class="cls-4" points="350.18 .8 299.17 26.31 359.48 56.08 269.97 100.83 210.05 70.87 120.16 115.81 269.97 190.71 150.13 250.64 90.2 220.67 .39 266.69"/>
      <polyline class="cls-4" points="156.78 .39 383.13 113.56 254.61 181.71 372.76 242.51 389.17 234.05 448.96 264.08 359.21 308.95 448.96 353.96 328.57 413.48 499.03 499.36"/>
    </g>
    <g>
      <polygon class="cls-20" points="100.13 279.42 130.09 294.4 160.05 279.42 130.09 264.44 100.13 279.42"/>
      <polygon class="cls-2" points="100.13 270.29 130.09 285.27 160.05 270.29 130.09 255.31 100.13 270.29"/>
      <polygon class="cls-24" points="100.13 270.29 100.13 279.42 130.09 294.4 160.05 279.42 160.05 270.29 130.09 285.27 100.13 270.29"/>
      <polygon class="cls-3" points="130.09 285.27 130.09 294.4 160.05 279.42 160.05 270.29 130.09 285.27"/>
    </g>
    <g>
      <path class="cls-17" d="M149.78,282.91c0,1.28-.82,2.51-1.83,2.74-1.01.23-1.83-.62-1.83-1.9s.82-2.51,1.83-2.74c1.01-.23,1.83.62,1.83,1.9Z"/>
      <path class="cls-18" d="M149.15,283.23c0,1.06-.68,2.08-1.52,2.27-.84.19-1.52-.51-1.52-1.57,0-1.06.68-2.08,1.52-2.27.84-.19,1.52.51,1.52,1.57Z"/>
    </g>
    <polyline class="cls-9" points="148 283.67 239.29 329.91 189.82 354.79 40.21 279.78 175.87 211.67 215.81 229.79"/>
    <g>
      <path class="cls-11" d="M141.01,257.67l-31.82,23.3c-3.74,1.89-12.76-4.51-12.89-9.14l-.77-27.17c-.13-4.64,2.79-9.93,6.53-11.83l37.71-19.12c3.74-1.89,13.37,2.85,13.5,7.49l-5.73,24.65c.13,4.64-2.79,9.93-6.53,11.83Z"/>
      <path class="cls-14" d="M147.65,261.52l-37.71,19.12c-3.74,1.89-6.87-.33-7-4.97l-.77-27.17c-.13-4.64,2.79-9.93,6.53-11.83l37.71-19.12c3.74-1.89,6.87.33,7,4.97l.77,27.17c.13,4.64-2.79,9.93-6.53,11.83Z"/>
      <path class="cls-6" d="M145.32,260.04l-33.21,16.84c-3.29,1.67-6.05-.29-6.17-4.37l-.68-23.92c-.12-4.08,2.46-8.75,5.75-10.41l33.21-16.84c3.29-1.67,6.05.29,6.17,4.37l.68,23.92c.12,4.08-2.46,8.75-5.75,10.41Z"/>
      <path class="cls-17" d="M119.56,247.48l.37,13.17c.09,3.26,2.87,4.04,5.22,1.48l13.4-14.64c2.94-3.22,2.53-8.46-.63-8.12l-13.77,1.47c-2.35.25-4.67,3.61-4.58,6.64Z"/>
    </g>
    <g>
      <g>
        <polygon class="cls-20" points="339.62 189.9 369.58 204.88 399.54 189.9 369.58 174.92 339.62 189.9"/>
        <polygon class="cls-2" points="339.62 180.76 369.58 195.74 399.54 180.76 369.58 165.78 339.62 180.76"/>
        <polygon class="cls-24" points="339.62 180.76 339.62 189.9 369.58 204.88 399.54 189.9 399.54 180.76 369.58 195.74 339.62 180.76"/>
        <polygon class="cls-3" points="369.58 195.74 369.58 204.88 399.54 189.9 399.54 180.76 369.58 195.74"/>
      </g>
      <g>
        <g class="cls-15">
          <path class="cls-11" d="M380.7,115.77c.15,0,.3.03.44.04.22.02.44.03.66.06.16.02.32.06.48.08.2.03.4.06.6.1.16.03.31.08.46.12.2.05.39.09.59.15.15.05.3.11.45.16.19.07.38.13.56.2.15.06.3.14.45.2.18.08.35.15.53.24.15.08.3.17.45.25.17.09.34.18.51.29h0s0,0,0,0l-6.13-3.78s-.02,0-.02-.01c-.16-.1-.32-.18-.49-.27-.15-.08-.3-.17-.45-.25-.17-.09-.35-.16-.53-.24-.15-.07-.3-.14-.45-.21-.18-.07-.37-.13-.56-.2-.15-.05-.3-.11-.45-.16-.19-.06-.39-.1-.59-.15-.15-.04-.3-.09-.46-.12-.2-.04-.4-.07-.6-.1-.16-.03-.31-.06-.48-.08-.2-.03-.4-.04-.61-.05-.17-.01-.33-.04-.5-.04-.23-.01-.46,0-.69,0-.15,0-.29,0-.44,0-.38.01-.77.04-1.16.08-.52.06-1.04.15-1.57.26-.06.01-.13.02-.19.03-.05.01-.11.03-.16.04-.49.11-.98.24-1.48.4-.06.02-.12.04-.18.06-.45.15-.91.32-1.36.51-.07.03-.14.05-.21.08-.06.03-.12.06-.18.08-.46.2-.92.41-1.38.65-.02.01-.05.02-.07.03-.48.25-.97.53-1.46.82-.06.03-.11.06-.17.09-.25.15-.5.31-.75.47-.44.29-.88.59-1.31.91-.14.1-.28.21-.42.32-.29.22-.58.44-.87.68-.06.05-.12.09-.19.14-.06.05-.12.11-.18.16-.6.5-1.19,1.02-1.77,1.57-.06.06-.12.12-.19.18-.58.56-1.15,1.14-1.7,1.74-.03.03-.06.06-.08.09-.01.01-.02.03-.04.04-.39.43-.78.87-1.16,1.32-.11.13-.21.26-.31.38-.28.33-.55.67-.82,1.02-.13.17-.26.34-.39.51-.24.32-.48.64-.72.97-.13.18-.25.35-.38.53-.25.36-.49.72-.73,1.08-.08.11-.15.22-.23.34-.02.03-.04.07-.07.11-.35.55-.7,1.1-1.03,1.66-.07.12-.14.25-.21.37-.26.45-.52.91-.78,1.37-.1.18-.2.37-.3.55-.24.44-.47.89-.69,1.34-.08.16-.16.31-.23.47-.29.6-.58,1.2-.85,1.81-.05.12-.1.24-.15.36-.22.5-.43,1-.64,1.51-.08.2-.16.39-.23.59-.18.47-.36.94-.53,1.41-.06.17-.13.34-.19.52-.22.63-.44,1.27-.64,1.9-.03.1-.06.21-.09.31-.17.54-.33,1.08-.48,1.63-.06.2-.11.4-.16.61-.13.48-.25.96-.36,1.44-.04.18-.09.37-.13.55-.15.65-.29,1.3-.41,1.95-.02.08-.03.16-.04.24-.11.57-.2,1.15-.29,1.72-.03.2-.06.4-.09.6-.07.48-.13.95-.18,1.43-.02.19-.04.38-.06.57-.06.65-.12,1.29-.15,1.94,0,.04,0,.09,0,.13-.03.6-.05,1.2-.06,1.79,0,.2,0,.39,0,.58,0,.47,0,.93.02,1.39,0,.19.01.38.02.57.03.63.07,1.25.13,1.87.77,8.08,3.93,13.8,8.44,16.59l6.13,3.78c-4.52-2.78-7.68-8.51-8.44-16.59-.06-.62-.1-1.25-.13-1.87,0-.19-.01-.38-.02-.57-.02-.46-.02-.93-.02-1.39,0-.19,0-.39,0-.58,0-.6.03-1.19.06-1.79,0-.04,0-.09,0-.13.04-.64.09-1.29.15-1.94.02-.19.04-.38.06-.57.05-.48.11-.95.18-1.43.03-.2.06-.4.09-.6.09-.57.18-1.15.29-1.72.01-.08.03-.16.04-.24.12-.65.26-1.3.41-1.95.04-.18.09-.37.13-.55.11-.48.24-.96.36-1.44.05-.2.11-.4.16-.61.15-.54.31-1.09.48-1.63.03-.1.06-.21.09-.31.2-.64.42-1.27.64-1.9.06-.17.13-.34.19-.52.17-.47.35-.94.53-1.41.08-.2.16-.39.23-.59.21-.51.42-1.01.64-1.51.05-.12.1-.24.15-.36.27-.61.56-1.21.85-1.81.08-.16.16-.31.23-.47.23-.45.46-.9.69-1.34.1-.18.2-.37.3-.55.25-.46.51-.92.78-1.37.07-.12.14-.25.21-.37.34-.56.68-1.12,1.03-1.66.1-.15.2-.3.3-.44.24-.36.48-.72.73-1.08.12-.18.25-.36.38-.53.24-.33.48-.65.72-.97.13-.17.26-.34.39-.51.27-.35.55-.69.82-1.03.1-.12.2-.25.31-.37.38-.45.77-.9,1.16-1.33.04-.04.08-.08.12-.12.56-.6,1.13-1.18,1.71-1.74.06-.06.12-.12.18-.18.58-.55,1.17-1.07,1.77-1.57.12-.1.24-.2.36-.3.29-.23.58-.46.87-.68.14-.1.28-.21.42-.32.43-.32.87-.62,1.31-.91.31-.2.61-.39.92-.57.49-.29.98-.57,1.46-.82.02-.01.05-.02.07-.03.46-.24.93-.45,1.39-.65.13-.06.26-.11.39-.16.46-.19.91-.36,1.36-.51.06-.02.12-.04.18-.06.5-.16.99-.29,1.48-.4.12-.03.23-.05.35-.07.53-.11,1.05-.2,1.57-.26.39-.04.78-.07,1.16-.08.09,0,.18,0,.27,0,.29,0,.58,0,.87,0Z"/>
          <path class="cls-14" d="M378.41,115.84c8.82-.95,15.73,5.92,16.92,18.42,1.58,16.61-7.54,36.86-20.37,45.25-3.17,2.07-6.27,3.23-9.17,3.54-8.82.95-15.73-5.92-16.92-18.42-1.58-16.61,7.54-36.86,20.37-45.25,3.17-2.07,6.27-3.23,9.17-3.54Z"/>
          <path class="cls-10" d="M377.86,118.75c8.05-.87,14.37,5.41,15.46,16.82,1.44,15.17-6.89,33.67-18.61,41.33-2.9,1.89-5.73,2.95-8.37,3.23-8.05.87-14.37-5.41-15.46-16.82-1.44-15.17,6.89-33.67,18.61-41.33,2.9-1.89,5.73-2.95,8.37-3.23Z"/>
        </g>
        <g>
          <path class="cls-17" d="M365.59,146.64c.09,1.38-1.28,3.25-3.07,4.18-1.79.93-3.31.56-3.41-.82s1.28-3.25,3.07-4.18c1.79-.93,3.31-.56,3.41.82Z"/>
          <path class="cls-17" d="M386.47,135.81c.09,1.38-1.28,3.25-3.07,4.18-1.79.93-3.31.56-3.41-.82-.09-1.38,1.28-3.25,3.07-4.18,1.79-.93,3.31-.56,3.41.82Z"/>
          <path class="cls-17" d="M369.4,151.55c.29,4.33-2.14,11.64-5.62,13.45s-6.7-2.58-6.99-6.9c-.29-4.33,2.3-9.3,5.78-11.11,3.48-1.81,6.54.23,6.84,4.56Z"/>
          <path class="cls-17" d="M389.69,141.02c.29,4.33-2.14,11.64-5.62,13.45-3.48,1.81-6.7-2.58-6.99-6.9-.29-4.33,2.3-9.3,5.78-11.11s6.54.23,6.84,4.56Z"/>
          <polygon class="cls-17" points="382.44 149.7 365.36 158.56 364.68 148.55 381.77 139.68 382.44 149.7"/>
          <path class="cls-13" d="M384.48,139.88c.05.72-.38,1.55-.97,1.86-.58.3-1.09-.04-1.14-.76-.05-.72.38-1.55.97-1.86.58-.3,1.09.04,1.14.76Z"/>
          <path class="cls-13" d="M381.55,145.29c.05.72-.38,1.55-.97,1.86-.58.3-1.09-.04-1.14-.76s.38-1.55.97-1.86c.58-.3,1.09.04,1.14.76Z"/>
          <path class="cls-13" d="M387.92,141.98c.05.72-.38,1.55-.97,1.86-.58.3-1.09-.04-1.14-.76-.05-.72.38-1.55.97-1.86.58-.3,1.09.04,1.14.76Z"/>
          <path class="cls-13" d="M384.93,146.58c.05.72-.38,1.55-.97,1.86-.58.3-1.09-.04-1.14-.76s.38-1.55.97-1.86,1.09.04,1.14.76Z"/>
          <polygon class="cls-13" points="363.69 158.1 362.38 158.78 361.94 152.23 363.25 151.55 363.69 158.1"/>
          <polygon class="cls-13" points="365.4 152.98 365.51 154.61 360.23 157.35 360.12 155.72 365.4 152.98"/>
          <polygon class="cls-13" points="376.44 146.58 374.99 147.34 374.95 146.76 376.41 146.01 376.44 146.58"/>
          <polygon class="cls-13" points="371.58 149.1 370.13 149.86 370.09 149.29 371.54 148.53 371.58 149.1"/>
          <path class="cls-13" d="M376.99,148.7c.05.76-.41,1.64-1.02,1.96s-1.16-.04-1.21-.81c-.05-.76.41-1.64,1.02-1.96s1.16.04,1.21.81Z"/>
          <path class="cls-13" d="M372.12,151.22c.05.76-.41,1.64-1.02,1.96-.62.32-1.16-.04-1.21-.81-.05-.76.41-1.64,1.02-1.96s1.16.04,1.21.81Z"/>
        </g>
      </g>
      <g>
        <path class="cls-17" d="M388.23,193.78c0,1.28-.82,2.51-1.83,2.74-1.01.23-1.83-.62-1.83-1.9,0-1.28.82-2.51,1.83-2.74,1.01-.23,1.83.62,1.83,1.9Z"/>
        <path class="cls-18" d="M387.6,194.09c0,1.06-.68,2.08-1.52,2.27-.84.19-1.52-.51-1.52-1.57,0-1.06.68-2.08,1.52-2.27.84-.19,1.52.51,1.52,1.57Z"/>
      </g>
      <polyline class="cls-9" points="386.08 194.44 446.69 226.35 310 294.83 275.27 277.47"/>
    </g>
    <g>
      <g>
        <polygon class="cls-20" points="288.67 391.89 318.63 406.87 348.59 391.89 318.63 376.91 288.67 391.89"/>
        <polygon class="cls-2" points="288.67 382.76 318.63 397.74 348.59 382.76 318.63 367.78 288.67 382.76"/>
        <polygon class="cls-24" points="288.67 382.76 288.67 391.89 318.63 406.87 348.59 391.89 348.59 382.76 318.63 397.74 288.67 382.76"/>
        <path class="cls-17" d="M305.5,395.53c0,1.54-1.14,2.78-2.54,2.78s-2.54-1.25-2.54-2.78,1.14-2.78,2.54-2.78,2.54,1.25,2.54,2.78Z"/>
        <polygon class="cls-3" points="318.63 397.74 318.63 406.87 348.59 391.89 348.59 382.76 318.63 397.74"/>
      </g>
      <polyline class="cls-5" points="220.7 279.42 99.39 340.08 256.96 419.01 302.95 395.43"/>
      <g>
        <path class="cls-19" d="M330.02,370.7l-31.82,23.3c-3.74,1.89-12.76-4.51-12.89-9.14l-.77-27.17c-.13-4.64,2.79-9.93,6.53-11.83l37.71-19.12c3.74-1.89,13.37,2.85,13.5,7.49l-5.73,24.65c.13,4.64-2.79,9.93-6.53,11.83Z"/>
        <path class="cls-19" d="M336.66,374.55l-37.71,19.12c-3.74,1.89-6.87-.33-7-4.97l-.77-27.17c-.13-4.64,2.79-9.93,6.53-11.83l37.71-19.12c3.74-1.89,6.87.33,7,4.97l.77,27.17c.13,4.64-2.79,9.93-6.53,11.83Z"/>
        <path class="cls-25" d="M334.33,373.06l-33.21,16.84c-3.29,1.67-6.05-.29-6.17-4.37l-.68-23.92c-.12-4.08,2.46-8.75,5.75-10.41l33.21-16.84c3.29-1.67,6.05.29,6.17,4.37l.68,23.92c.12,4.08-2.46,8.75-5.75,10.41Z"/>
        <path class="cls-6" d="M334.33,373.06l-33.21,16.84c-3.29,1.67-6.05-.29-6.17-4.37l-.68-23.92c-.12-4.08,2.46-8.75,5.75-10.41l33.21-16.84c3.29-1.67,6.05.29,6.17,4.37l.68,23.92c.12,4.08-2.46,8.75-5.75,10.41Z"/>
        <polygon class="cls-12" points="302.61 363.57 318.65 364.53 333.16 341.21 320.9 372.87 302.61 363.57"/>
      </g>
    </g>
    <g>
      <g>
        <g>
          <polygon class="cls-20" points="129.89 115.44 159.86 130.42 189.82 115.44 159.86 100.46 129.89 115.44"/>
          <polygon class="cls-2" points="129.89 106.31 159.86 121.29 189.82 106.31 159.86 91.32 129.89 106.31"/>
          <polygon class="cls-24" points="129.89 106.31 129.89 115.44 159.86 130.42 189.82 115.44 189.82 106.31 159.86 121.29 129.89 106.31"/>
          <polygon class="cls-3" points="159.86 121.29 159.86 130.42 189.82 115.44 189.82 106.31 159.86 121.29"/>
        </g>
        <g>
          <path class="cls-17" d="M177.47,118.89c0,1.28-.82,2.51-1.83,2.74-1.01.23-1.83-.62-1.83-1.9,0-1.28.82-2.51,1.83-2.74,1.01-.23,1.83.62,1.83,1.9Z"/>
          <path class="cls-18" d="M176.84,119.2c0,1.06-.68,2.08-1.52,2.27-.84.19-1.52-.51-1.52-1.57,0-1.06.68-2.08,1.52-2.27.84-.19,1.52.51,1.52,1.57Z"/>
        </g>
      </g>
      <line class="cls-7" x1="174.84" y1="119.76" x2="257.78" y2="165.1"/>
      <g>
        <path class="cls-1" d="M174.82,96.97l-31.72,22.93c-4.15,2.14-12.17-4.37-12.28-9.3l-.67-29.33c-.11-4.92,3.16-10.65,7.31-12.78l36.29-18.68c4.15-2.14,13.4,2.95,13.51,7.87l-5.13,26.51c.11,4.92-3.16,10.65-7.31,12.78Z"/>
        <path class="cls-19" d="M180.69,100.83l-36.29,18.68c-4.15,2.14-7.6-.13-7.71-5.05l-.67-29.33c-.11-4.92,3.16-10.65,7.31-12.78l36.29-18.68c4.15-2.14,7.6.13,7.71,5.05l.67,29.33c.11,4.92-3.16,10.65-7.31,12.78Z"/>
        <path class="cls-25" d="M179.52,96.48l-34.51,17.77c-2.42,1.25-4.44-.07-4.5-2.95l-.62-27.3c-.07-2.88,1.85-6.22,4.27-7.46l34.51-17.77c2.42-1.25,4.44.07,4.5,2.95l.62,27.3c.07,2.88-1.85,6.22-4.27,7.46Z"/>
        <g>
          <polygon class="cls-12" points="150.4 111.47 145.51 113.99 144.88 86.22 149.77 83.71 150.4 111.47"/>
          <polygon class="cls-12" points="156.59 108.28 151.7 110.8 150.97 78.42 155.85 75.9 156.59 108.28"/>
          <polygon class="cls-12" points="163.52 104.71 158.64 107.23 158.06 81.76 162.94 79.24 163.52 104.71"/>
          <polygon class="cls-12" points="169.96 101.4 165.08 103.91 164.6 83.15 169.49 80.63 169.96 101.4"/>
          <polygon class="cls-12" points="176.65 97.95 171.76 100.47 170.96 65.15 175.85 62.63 176.65 97.95"/>
        </g>
        <path class="cls-6" d="M179.52,96.48l-34.51,17.77c-2.42,1.25-4.44-.07-4.5-2.95l-.62-27.3c-.07-2.88,1.85-6.22,4.27-7.46l34.51-17.77c2.42-1.25,4.44.07,4.5,2.95l.62,27.3c.07,2.88-1.85,6.22-4.27,7.46Z"/>
      </g>
    </g>
    <g>
      <g>
        <ellipse class="cls-3" cx="446.69" cy="265.67" rx="13.48" ry="7.8"/>
        <polygon class="cls-3" points="433.2 261.9 433.2 266.01 460.15 266.01 460.15 261.63 433.2 261.9"/>
        <ellipse class="cls-2" cx="446.69" cy="251.63" rx="13.48" ry="7.8"/>
      </g>
      <g class="cls-15">
        <g>
          <path class="cls-11" d="M461.79,234.4c.15.02.29.05.43.1l-4.67-1.88c-.08-.03-.15-.06-.23-.08-.06-.02-.13-.02-.2-.03-.04,0-.07-.01-.11-.02-.02,0-.04,0-.06,0-.15,0-.3,0-.46.03l-1.95.37,4.67,1.88,1.95-.37c.18-.03.35-.04.51-.03.04,0,.07.01.11.02Z"/>
          <path class="cls-11" d="M453.82,250.95l-4.67-1.88,1.38,1.34c.09.09.18.16.28.23.1.06.2.12.31.16l4.67,1.88c-.21-.09-.41-.21-.59-.39l-1.38-1.34Z"/>
          <path class="cls-11" d="M444.86,256.5v-2.28s-4.66-1.88-4.66-1.88v.36s-3.25-1.31-3.25-1.31c.25.13.5.24.75.35l2.5,1.01v1.87c0,1.05.51,1.87,1.26,2.17l4.67,1.88c-.75-.3-1.27-1.12-1.26-2.17Z"/>
          <path class="cls-11" d="M449.31,247.93c.13-.06.26-.12.39-.19.09-.05.17-.09.25-.14.12-.07.24-.15.36-.22.08-.05.16-.11.24-.17.12-.08.24-.17.35-.26.08-.06.15-.12.23-.18.03-.03.06-.05.1-.08.03-.03.06-.06.09-.09.29-.26.57-.54.84-.84,0,0,0,0,0,0,0,0,0,0,0,0,.22-.25.42-.52.62-.8.02-.03.05-.06.07-.1.03-.05.06-.1.09-.15.13-.2.26-.4.37-.61.03-.05.07-.1.1-.16.01-.03.03-.06.04-.08.15-.28.3-.57.42-.87,0,0,0,0,0-.01,0-.02.01-.04.02-.06.12-.29.23-.59.32-.89.01-.04.03-.08.05-.13.01-.04.02-.09.03-.13.11-.39.21-.78.28-1.18,0,0,0-.01,0-.02.03-.17.04-.34.06-.51.01-.09.03-.19.03-.28.02-.27.04-.55.04-.83,0-3.18-1.54-5.63-3.81-6.55l-4.67-1.88c2.27.92,3.82,3.37,3.81,6.55,0,.28-.01.55-.04.83,0,.09-.02.19-.03.28-.02.18-.04.35-.07.53-.07.4-.16.79-.28,1.18-.02.09-.05.17-.08.26-.1.3-.2.6-.32.89,0,.02-.02.05-.03.07-.13.3-.27.59-.42.87-.04.08-.09.16-.14.24-.12.21-.24.41-.37.61-.05.08-.11.16-.16.24-.2.28-.4.54-.62.8,0,0,0,0-.01.01-.26.3-.54.58-.84.84-.06.06-.12.11-.19.17-.07.06-.15.12-.23.18-.11.09-.23.18-.35.26-.08.06-.16.11-.24.17-.12.08-.24.15-.36.22-.08.05-.17.1-.25.14-.13.07-.26.13-.39.19-.08.04-.16.08-.25.11-.14.06-.28.11-.42.15-.3.1-.61.19-.92.25-.26.05-.52.08-.78.09-.08,0-.16,0-.24,0-.18,0-.36,0-.54-.01-.06,0-.13-.01-.19-.02-.21-.02-.42-.06-.63-.1-.02,0-.04,0-.06-.01-.25-.06-.49-.14-.72-.23l4.67,1.88c.23.09.46.17.7.23,0,0,.01,0,.02,0,.02,0,.04,0,.07.01.2.05.41.08.63.1.06,0,.13.01.19.02.06,0,.12.01.18.02.12,0,.24,0,.35,0,.08,0,.16,0,.24,0,.26-.02.51-.04.78-.09.31-.06.62-.15.92-.25.04-.01.08-.02.11-.03.07-.03.15-.05.22-.08.03-.01.06-.03.08-.04.08-.03.17-.07.25-.11Z"/>
          <path class="cls-11" d="M448.45,225.07c-.38-.15-.77-.28-1.17-.38-.01,0-.02,0-.03,0-.02,0-.04,0-.06-.01-.4-.1-.82-.17-1.24-.21l4.67,1.88c.42.04.84.11,1.24.21.02,0,.04,0,.06.01.24.06.47.15.7.22l1.26.51,1.38-1.87c.09-.12.19-.23.29-.34.04-.04.08-.08.12-.12.09-.08.17-.15.26-.21.04-.03.07-.06.11-.08.13-.08.26-.16.4-.21,0,0,0,0,0,0,.14-.06.29-.1.44-.13.17-.03.34-.04.5-.03.03,0,.06,0,.1.01.15.02.3.05.45.11l-4.67-1.88c-.08-.03-.15-.06-.23-.08-.07-.02-.14-.02-.21-.03-.03,0-.06-.01-.1-.01-.02,0-.03,0-.05,0-.15,0-.3,0-.46.03-.1.02-.21.05-.31.08-.04.01-.08.03-.12.05,0,0,0,0,0,0,0,0,0,0-.01,0-.13.06-.26.13-.39.21-.04.02-.07.06-.11.08-.07.05-.14.09-.2.15-.02.02-.04.04-.06.06-.04.04-.08.08-.12.12-.04.04-.09.08-.13.13-.06.07-.11.14-.17.21l-1.36,1.84-.77-.31Z"/>
          <path class="cls-11" d="M436.2,255.03c-.13-.13-.24-.27-.33-.43-.03-.05-.05-.1-.08-.15-.06-.11-.11-.23-.14-.36-.02-.06-.04-.12-.05-.19-.03-.13-.05-.27-.06-.4,0-.06-.01-.12-.01-.18,0-.2,0-.4.04-.6.03-.16.07-.33.12-.49.01-.03.02-.06.03-.09.05-.13.1-.26.16-.39.01-.03.03-.06.04-.09.08-.15.17-.31.28-.45l1.38-1.87c-.3-.53-.57-1.09-.79-1.68-.22-.59-.41-1.22-.55-1.87l-4.23-1.71c0-.06-.02-.12-.02-.18v-1.24c0-.18.02-.37.05-.54,0-.02.01-.04.02-.07.03-.15.06-.29.11-.43.01-.04.03-.08.04-.11.05-.13.1-.25.16-.37.01-.03.02-.05.04-.08.07-.14.16-.27.25-.39.02-.03.05-.06.07-.09.07-.09.15-.18.22-.26.04-.04.08-.09.13-.13.07-.07.15-.13.23-.19.05-.04.1-.08.15-.11.09-.06.18-.11.28-.15.05-.02.09-.05.14-.07.14-.06.29-.11.44-.14l1.95-.37c.1-.48.23-.96.36-1.43.04-.15.09-.29.13-.44.04-.14.09-.28.14-.42.07-.19.13-.37.2-.56.05-.13.1-.27.16-.4.11-.28.23-.55.36-.82l-1.38-1.35c-.13-.13-.24-.27-.33-.43-.03-.05-.05-.1-.08-.15-.06-.11-.11-.23-.14-.36-.02-.06-.04-.12-.05-.19-.03-.13-.05-.27-.06-.4,0-.06-.01-.12-.01-.18,0-.2,0-.4.04-.6.03-.16.07-.33.12-.49.01-.03.02-.06.03-.09.05-.13.1-.26.16-.39.01-.03.03-.06.04-.09.08-.15.17-.31.28-.45l.76-1.02c.09-.12.19-.23.29-.34.04-.04.08-.08.12-.12.09-.08.18-.15.27-.21.04-.03.07-.06.11-.08.03-.02.06-.03.08-.05l3.77,1.52c.17-.15.34-.29.51-.43.11-.09.21-.18.32-.26.15-.12.31-.23.47-.34.1-.07.21-.15.31-.22.18-.12.36-.23.54-.34.09-.05.18-.11.27-.16.27-.16.55-.3.84-.44v-2.28c0-.18.02-.37.05-.54,0-.02.01-.05.02-.07.03-.15.06-.29.11-.43.01-.04.03-.08.04-.11.05-.13.1-.25.16-.37.01-.03.03-.05.04-.08.07-.14.16-.27.25-.39.02-.03.05-.06.07-.09.07-.09.14-.17.22-.26.04-.04.09-.09.13-.13.07-.07.15-.13.23-.19.05-.04.1-.08.15-.11.09-.06.18-.11.28-.15.05-.02.09-.05.13-.07.14-.06.29-.11.44-.14l1.07-.2c.18-.03.35-.04.51-.03.04,0,.07.01.11.02.15.02.29.05.43.1l-4.67-1.88c-.08-.03-.15-.06-.23-.08-.06-.02-.13-.02-.2-.03-.04,0-.07-.01-.11-.02-.02,0-.04,0-.06,0-.15,0-.3,0-.45.03l-1.07.2c-.12.02-.23.05-.34.09-.02,0-.05.02-.07.03,0,0-.02.01-.03.01-.05.02-.09.05-.14.07-.09.05-.19.09-.28.15-.05.03-.1.07-.15.11-.05.04-.11.07-.16.12-.03.02-.05.05-.07.07-.04.04-.09.09-.13.13-.03.04-.07.07-.11.11-.04.05-.08.1-.12.15-.02.03-.05.06-.07.09-.01.02-.03.03-.04.05-.07.1-.13.2-.19.3,0,.01-.01.03-.02.04-.01.03-.03.05-.04.08-.03.07-.07.13-.1.2-.02.06-.04.12-.06.17-.01.04-.03.08-.04.11,0,.02-.02.05-.03.07-.04.12-.06.24-.08.36,0,.02-.01.05-.02.07,0,0,0,0,0,.01-.03.18-.04.35-.04.53v2.28c-.29.13-.57.28-.84.44-.09.05-.18.11-.27.17-.18.11-.36.22-.54.33-.11.07-.21.15-.31.22-.16.11-.31.22-.47.34-.02.02-.05.04-.07.05l-2.72-1.1c-.08-.03-.15-.06-.23-.08-.07-.02-.14-.02-.21-.03-.03,0-.06-.01-.1-.01-.02,0-.03,0-.05,0-.15,0-.3,0-.46.03-.1.02-.21.05-.31.08-.04.01-.08.03-.13.05,0,0,0,0,0,0,0,0,0,0-.01,0-.13.06-.26.13-.39.21-.04.03-.07.06-.11.08-.07.05-.14.09-.2.15-.02.02-.04.04-.06.06-.04.04-.08.08-.12.12-.04.04-.09.08-.13.13-.06.07-.11.14-.17.21l-.76,1.02s-.04.06-.06.09c-.07.1-.13.2-.19.3-.01.02-.02.04-.03.06-.02.03-.03.06-.04.09-.03.06-.06.11-.08.17-.03.07-.05.15-.08.22-.01.03-.02.06-.03.09,0,.01-.01.03-.02.04-.04.15-.08.29-.1.44,0,0,0,0,0,0-.03.2-.04.4-.04.6,0,.06,0,.12.01.18.01.14.03.27.06.4.01.06.03.13.05.19.04.13.09.24.14.36.03.05.05.1.08.15.09.16.2.3.33.43l1.38,1.35c-.1.21-.19.42-.29.64-.03.06-.05.12-.07.18-.05.13-.11.27-.16.4-.07.19-.14.37-.21.56-.05.14-.09.28-.14.41-.03.09-.06.17-.09.26-.02.06-.03.12-.04.18-.14.47-.26.95-.36,1.43l-1.95.37c-.12.02-.23.05-.34.09-.02,0-.05.02-.07.03,0,0-.02.01-.03.01-.05.02-.09.05-.14.07-.09.05-.19.09-.28.15-.05.03-.1.07-.15.11-.05.04-.11.07-.16.12-.03.02-.05.05-.07.07-.04.04-.09.08-.13.13-.03.04-.07.07-.11.11-.04.05-.08.1-.12.15-.02.03-.05.06-.07.09-.01.02-.03.03-.04.05-.07.1-.13.2-.19.3,0,.01-.01.03-.02.04-.01.03-.03.05-.04.08-.03.07-.07.13-.1.2-.02.06-.04.12-.06.17-.01.04-.03.08-.04.11,0,.02-.02.05-.02.07-.04.12-.06.24-.09.36,0,.02-.01.04-.02.07,0,0,0,0,0,0-.03.18-.04.35-.04.53v1.24c0,1.05.51,1.87,1.26,2.17l3.49,1.41c.24.66.52,1.28.85,1.86l-1.38,1.87s-.04.06-.06.09c-.07.1-.13.2-.19.3-.01.02-.02.04-.03.06-.02.03-.03.06-.04.09-.03.06-.06.11-.08.17-.03.07-.05.15-.08.22-.01.03-.02.06-.03.09,0,.01-.01.03-.02.04-.04.15-.08.29-.1.44,0,0,0,0,0,0-.03.2-.04.4-.04.6,0,.06,0,.12.01.18.01.14.03.27.06.4.01.06.03.13.05.19.04.13.09.24.14.36.03.05.05.1.08.15.09.16.2.3.33.43l.75.74c.18.17.38.3.59.39l4.67,1.88c-.21-.09-.41-.21-.59-.39l-.75-.74Z"/>
        </g>
        <path class="cls-14" d="M461.17,234.41c1.28-.24,2.31.77,2.31,2.26v1.24c0,1.5-1.04,2.9-2.32,3.14l-1.95.37c-.29,1.41-.75,2.78-1.36,4.06l1.38,1.34c.9.88.9,2.6,0,3.82l-.76,1.02c-.45.61-1.05.99-1.64,1.1-.59.11-1.18-.04-1.63-.48l-1.38-1.34c-1,.89-2.09,1.64-3.26,2.19v2.28c0,1.49-1.05,2.9-2.32,3.14l-1.07.2c-1.28.24-2.31-.77-2.31-2.26v-2.28c-1.16-.11-2.25-.44-3.25-.95l-1.38,1.87c-.45.61-1.05.99-1.64,1.1-.59.11-1.18-.04-1.63-.48l-.75-.74c-.9-.88-.9-2.59,0-3.82l1.38-1.87c-.6-1.05-1.06-2.25-1.34-3.55l-1.95.37c-1.28.24-2.31-.77-2.31-2.26v-1.24c0-1.49,1.04-2.89,2.32-3.14l1.95-.37c.29-1.41.75-2.78,1.36-4.06l-1.38-1.35c-.9-.88-.9-2.59,0-3.82l.76-1.02c.45-.61,1.05-.99,1.64-1.1.59-.11,1.18.04,1.63.48l1.38,1.35c1-.89,2.09-1.64,3.26-2.19v-2.28c0-1.49,1.05-2.9,2.32-3.14l1.07-.2c1.28-.24,2.31.77,2.31,2.26v2.28c1.15.11,2.25.44,3.25.95l1.38-1.87c.45-.61,1.05-.99,1.64-1.1.59-.11,1.18.04,1.63.48l.75.74c.9.88.9,2.6,0,3.82l-1.38,1.87c.6,1.05,1.06,2.25,1.34,3.55l1.95-.37ZM447.72,248.45c3.86-.73,7-4.98,7.01-9.49,0-4.51-3.11-7.57-6.98-6.83-3.86.73-7,4.98-7,9.49,0,4.51,3.11,7.57,6.97,6.83"/>
      </g>
    </g>
    <g>
      <g>
        <ellipse class="cls-3" cx="46.04" cy="163.91" rx="13.48" ry="7.8"/>
        <polygon class="cls-3" points="32.56 160.13 32.56 164.24 59.51 164.24 59.51 159.86 32.56 160.13"/>
        <ellipse class="cls-2" cx="46.04" cy="159.86" rx="13.48" ry="7.8"/>
      </g>
      <g class="cls-15">
        <g>
          <path class="cls-1" d="M60.01,134.74c.15.02.29.05.43.1l-4.67-1.88c-.08-.03-.15-.06-.23-.08-.06-.02-.13-.02-.2-.03-.04,0-.07-.01-.11-.02-.02,0-.04,0-.06,0-.15,0-.3,0-.46.03l-1.95.37,4.67,1.88,1.95-.37c.18-.03.35-.04.51-.03.04,0,.07.01.11.02Z"/>
          <path class="cls-1" d="M52.04,151.29l-4.67-1.88,1.38,1.34c.09.09.18.16.28.23.1.06.2.12.31.16l4.67,1.88c-.21-.09-.41-.21-.59-.39l-1.38-1.34Z"/>
          <path class="cls-1" d="M43.08,156.84v-2.28s-4.66-1.88-4.66-1.88v.36s-3.25-1.31-3.25-1.31c.25.13.5.24.75.35l2.5,1.01v1.87c0,1.05.51,1.87,1.26,2.17l4.67,1.88c-.75-.3-1.27-1.12-1.26-2.17Z"/>
          <path class="cls-1" d="M47.52,148.27c.13-.06.26-.12.39-.19.09-.05.17-.09.25-.14.12-.07.24-.15.36-.22.08-.05.16-.11.24-.17.12-.08.24-.17.35-.26.08-.06.15-.12.23-.18.03-.03.06-.05.1-.08.03-.03.06-.06.09-.09.29-.26.57-.54.84-.84,0,0,0,0,0,0,0,0,0,0,0,0,.22-.25.42-.52.62-.8.02-.03.05-.06.07-.1.03-.05.06-.1.09-.15.13-.2.26-.4.37-.61.03-.05.07-.1.1-.16.01-.03.03-.06.04-.08.15-.28.3-.57.42-.87,0,0,0,0,0-.01,0-.02.01-.04.02-.06.12-.29.23-.59.32-.89.01-.04.03-.08.05-.13.01-.04.02-.09.03-.13.11-.39.21-.78.28-1.18,0,0,0-.01,0-.02.03-.17.04-.34.06-.51.01-.09.03-.19.03-.28.02-.27.04-.55.04-.83,0-3.18-1.54-5.63-3.81-6.55l-4.67-1.88c2.27.92,3.82,3.37,3.81,6.55,0,.28-.01.55-.04.83,0,.09-.02.19-.03.28-.02.18-.04.35-.07.53-.07.4-.16.79-.28,1.18-.02.09-.05.17-.08.26-.1.3-.2.6-.32.89,0,.02-.02.05-.03.07-.13.3-.27.59-.42.87-.04.08-.09.16-.14.24-.12.21-.24.41-.37.61-.05.08-.11.16-.16.24-.2.28-.4.54-.62.8,0,0,0,0-.01.01-.26.3-.54.58-.84.84-.06.06-.12.11-.19.17-.07.06-.15.12-.23.18-.11.09-.23.18-.35.26-.08.06-.16.11-.24.17-.12.08-.24.15-.36.22-.08.05-.17.1-.25.14-.13.07-.26.13-.39.19-.08.04-.16.08-.25.11-.14.06-.28.11-.42.15-.3.1-.61.19-.92.25-.26.05-.52.08-.78.09-.08,0-.16,0-.24,0-.18,0-.36,0-.54-.01-.06,0-.13-.01-.19-.02-.21-.02-.42-.06-.63-.1-.02,0-.04,0-.06-.01-.25-.06-.49-.14-.72-.23l4.67,1.88c.23.09.46.17.7.23,0,0,.01,0,.02,0,.02,0,.04,0,.07.01.2.05.41.08.63.1.06,0,.13.01.19.02.06,0,.12.01.18.02.12,0,.24,0,.35,0,.08,0,.16,0,.24,0,.26-.02.51-.04.78-.09.31-.06.62-.15.92-.25.04-.01.08-.02.11-.03.07-.03.15-.05.22-.08.03-.01.06-.03.08-.04.08-.03.17-.07.25-.11Z"/>
          <path class="cls-1" d="M46.67,125.41c-.38-.15-.77-.28-1.17-.38-.01,0-.02,0-.03,0-.02,0-.04,0-.06-.01-.4-.1-.82-.17-1.24-.21l4.67,1.88c.42.04.84.11,1.24.21.02,0,.04,0,.06.01.24.06.47.15.7.22l1.26.51,1.38-1.87c.09-.12.19-.23.29-.34.04-.04.08-.08.12-.12.09-.08.17-.15.26-.21.04-.03.07-.06.11-.08.13-.08.26-.16.4-.21,0,0,0,0,0,0,.14-.06.29-.1.44-.13.17-.03.34-.04.5-.03.03,0,.06,0,.1.01.15.02.3.05.45.11l-4.67-1.88c-.08-.03-.15-.06-.23-.08-.07-.02-.14-.02-.21-.03-.03,0-.06-.01-.1-.01-.02,0-.03,0-.05,0-.15,0-.3,0-.46.03-.1.02-.21.05-.31.08-.04.01-.08.03-.12.05,0,0,0,0,0,0,0,0,0,0-.01,0-.13.06-.26.13-.39.21-.04.03-.07.06-.11.08-.07.05-.14.09-.2.15-.02.02-.04.04-.06.06-.04.04-.08.08-.12.12-.04.04-.09.08-.13.13-.06.07-.11.14-.17.21l-1.36,1.84-.77-.31Z"/>
          <path class="cls-1" d="M34.42,155.37c-.13-.13-.24-.27-.33-.43-.03-.05-.05-.1-.08-.15-.06-.11-.1-.23-.14-.36-.02-.06-.04-.12-.05-.19-.03-.13-.05-.27-.06-.4,0-.06-.01-.12-.01-.18,0-.2,0-.4.04-.6.03-.16.07-.33.12-.49.01-.03.02-.06.03-.09.05-.13.1-.26.16-.39.01-.03.03-.06.04-.09.08-.15.17-.31.28-.45l1.38-1.87c-.3-.53-.57-1.09-.79-1.68-.22-.59-.41-1.22-.55-1.87l-4.23-1.71c0-.06-.02-.12-.02-.18v-1.24c0-.18.02-.37.05-.54,0-.02.01-.04.02-.07.03-.15.06-.29.11-.43.01-.04.03-.08.04-.11.05-.13.1-.25.16-.37.01-.03.02-.05.04-.08.07-.14.16-.27.25-.39.02-.03.05-.06.07-.09.07-.09.15-.18.22-.26.04-.04.08-.09.13-.13.07-.07.15-.13.23-.19.05-.04.1-.08.15-.11.09-.06.18-.11.28-.15.05-.02.09-.05.14-.07.14-.06.29-.11.44-.14l1.95-.37c.1-.48.23-.96.36-1.43.04-.15.09-.29.13-.44.04-.14.09-.28.14-.42.07-.19.13-.37.2-.56.05-.13.1-.27.16-.4.11-.28.23-.55.36-.82l-1.38-1.35c-.13-.13-.24-.27-.33-.43-.03-.05-.05-.1-.08-.15-.06-.11-.1-.23-.14-.36-.02-.06-.04-.12-.05-.19-.03-.13-.05-.27-.06-.4,0-.06-.01-.12-.01-.18,0-.2,0-.4.04-.6.03-.16.07-.33.12-.49.01-.03.02-.06.03-.09.05-.13.1-.26.16-.39.01-.03.03-.06.04-.09.08-.15.17-.31.28-.45l.76-1.02c.09-.12.19-.23.29-.34.04-.04.08-.08.12-.12.09-.08.18-.15.27-.21.04-.03.07-.06.11-.08.03-.02.06-.03.08-.05l3.77,1.52c.17-.15.34-.29.51-.43.11-.09.21-.18.32-.26.15-.12.31-.23.47-.34.1-.07.21-.15.31-.22.18-.12.36-.23.54-.34.09-.05.18-.11.27-.16.27-.16.55-.3.84-.44v-2.28c0-.18.02-.37.05-.54,0-.02.01-.05.02-.07.03-.15.06-.29.11-.43.01-.04.03-.08.04-.11.05-.13.1-.25.16-.37.01-.03.03-.05.04-.08.07-.14.16-.27.25-.39.02-.03.05-.06.07-.09.07-.09.14-.17.22-.26.04-.04.09-.09.13-.13.07-.07.15-.13.23-.19.05-.04.1-.08.15-.11.09-.06.18-.11.28-.15.05-.02.09-.05.13-.07.14-.06.29-.11.44-.14l1.07-.2c.18-.03.35-.04.51-.03.04,0,.07.01.11.02.15.02.29.05.43.1l-4.67-1.88c-.08-.03-.15-.06-.23-.08-.06-.02-.13-.02-.2-.03-.04,0-.07-.01-.11-.02-.02,0-.04,0-.06,0-.15,0-.3,0-.45.03l-1.07.2c-.12.02-.23.05-.34.09-.02,0-.05.02-.07.03,0,0-.02.01-.03.01-.05.02-.09.05-.14.07-.09.05-.19.09-.28.15-.05.03-.1.07-.15.11-.05.04-.11.07-.16.12-.03.02-.05.05-.07.07-.05.04-.09.09-.13.13-.03.04-.07.07-.11.11-.04.05-.08.1-.12.15-.02.03-.05.06-.07.09-.01.02-.03.03-.04.05-.07.1-.13.2-.19.3,0,.01-.01.03-.02.04-.01.03-.03.05-.04.08-.03.07-.07.13-.1.2-.02.06-.04.12-.06.17-.01.04-.03.08-.04.11,0,.02-.02.05-.03.07-.04.12-.06.24-.08.36,0,.02-.01.05-.02.07,0,0,0,0,0,.01-.03.18-.04.35-.04.53v2.28c-.29.13-.57.28-.84.44-.09.05-.18.11-.27.17-.18.11-.36.22-.54.33-.11.07-.21.15-.31.22-.16.11-.31.22-.47.34-.02.02-.05.04-.07.05l-2.72-1.1c-.08-.03-.15-.06-.23-.08-.07-.02-.14-.02-.21-.03-.03,0-.06-.01-.1-.01-.02,0-.03,0-.05,0-.15,0-.3,0-.46.03-.1.02-.21.05-.31.08-.04.01-.08.03-.13.05,0,0,0,0,0,0,0,0,0,0-.01,0-.13.06-.26.13-.39.21-.04.03-.07.06-.11.08-.07.05-.14.09-.2.15-.02.02-.04.04-.06.06-.04.04-.08.08-.12.12-.04.04-.09.08-.13.13-.06.07-.11.14-.17.21l-.76,1.02s-.04.06-.06.09c-.07.1-.13.2-.19.3-.01.02-.02.04-.03.06-.02.03-.03.06-.04.09-.03.06-.06.11-.08.17-.03.07-.05.15-.08.22-.01.03-.02.06-.03.09,0,.01-.01.03-.02.04-.04.15-.08.29-.1.44,0,0,0,0,0,0-.03.2-.04.4-.04.6,0,.06,0,.12.01.18.01.14.03.27.06.4.01.06.03.13.05.19.04.13.09.24.14.36.03.05.05.1.08.15.09.16.2.3.33.43l1.38,1.35c-.1.21-.19.42-.29.64-.03.06-.05.12-.07.18-.05.13-.11.27-.16.4-.07.19-.14.37-.21.56-.05.14-.09.28-.14.41-.03.09-.06.17-.09.26-.02.06-.03.12-.04.18-.14.47-.26.95-.36,1.43l-1.95.37c-.12.02-.23.05-.34.09-.02,0-.05.02-.07.03,0,0-.02.01-.03.01-.05.02-.09.05-.14.07-.09.05-.19.09-.28.15-.05.03-.1.07-.15.11-.05.04-.11.07-.16.12-.03.02-.05.05-.07.07-.04.04-.09.08-.13.13-.03.04-.07.07-.11.11-.04.05-.08.1-.12.15-.02.03-.05.06-.07.09-.01.02-.03.03-.04.05-.07.1-.13.2-.19.3,0,.01-.01.03-.02.04-.01.03-.03.05-.04.08-.03.07-.07.13-.1.2-.02.06-.04.12-.06.17-.01.04-.03.07-.04.11,0,.02-.02.05-.02.07-.04.12-.06.24-.09.36,0,.02-.01.04-.02.07,0,0,0,0,0,0-.03.18-.04.35-.04.54v1.24c0,1.05.51,1.87,1.26,2.17l3.49,1.41c.24.66.52,1.28.85,1.86l-1.38,1.87s-.04.06-.06.09c-.07.1-.13.2-.19.3-.01.02-.02.04-.03.06-.02.03-.03.06-.04.09-.03.06-.06.11-.08.17-.03.07-.05.15-.08.22-.01.03-.02.06-.03.09,0,.01-.01.03-.02.04-.04.15-.08.29-.1.44,0,0,0,0,0,0-.03.2-.04.4-.04.6,0,.06,0,.12.01.18.01.14.03.27.06.4.01.06.03.13.05.19.04.13.09.24.14.36.03.05.05.1.08.15.09.16.2.3.33.43l.75.74c.18.17.38.3.59.39l4.67,1.88c-.21-.09-.41-.21-.59-.39l-.75-.74Z"/>
        </g>
        <path class="cls-25" d="M59.39,134.75c1.28-.24,2.31.77,2.31,2.26v1.24c0,1.5-1.04,2.9-2.32,3.14l-1.95.37c-.29,1.41-.75,2.78-1.36,4.06l1.38,1.34c.9.88.9,2.6,0,3.82l-.76,1.02c-.45.61-1.05.99-1.64,1.1-.59.11-1.18-.04-1.63-.48l-1.38-1.34c-1,.89-2.09,1.64-3.26,2.19v2.28c0,1.49-1.05,2.9-2.32,3.14l-1.07.2c-1.28.24-2.31-.77-2.31-2.26v-2.28c-1.16-.11-2.25-.44-3.25-.95l-1.38,1.87c-.45.61-1.05.99-1.64,1.1-.59.11-1.18-.04-1.63-.48l-.75-.74c-.9-.88-.9-2.59,0-3.82l1.38-1.87c-.6-1.05-1.06-2.25-1.34-3.55l-1.95.37c-1.28.24-2.31-.77-2.31-2.26v-1.24c0-1.49,1.04-2.89,2.32-3.14l1.95-.37c.29-1.41.75-2.78,1.36-4.06l-1.38-1.35c-.9-.88-.9-2.59,0-3.82l.76-1.02c.45-.61,1.05-.99,1.64-1.1.59-.11,1.18.04,1.63.48l1.38,1.35c1-.89,2.09-1.64,3.26-2.19v-2.28c0-1.49,1.05-2.9,2.32-3.14l1.07-.2c1.28-.24,2.31.77,2.31,2.26v2.28c1.15.11,2.25.44,3.25.95l1.38-1.87c.45-.61,1.05-.99,1.64-1.1.59-.11,1.18.04,1.63.48l.75.74c.9.88.9,2.6,0,3.82l-1.38,1.87c.6,1.05,1.06,2.25,1.34,3.55l1.95-.37ZM45.94,148.79c3.86-.73,7-4.98,7.01-9.49,0-4.51-3.11-7.57-6.98-6.83-3.86.73-7,4.98-7,9.49,0,4.51,3.11,7.57,6.97,6.83"/>
      </g>
    </g>
    <g>
      <g>
        <ellipse class="cls-3" cx="447.07" cy="355.42" rx="13.48" ry="7.8"/>
        <polygon class="cls-3" points="433.58 351.64 433.58 355.75 460.53 355.75 460.53 351.37 433.58 351.64"/>
        <ellipse class="cls-2" cx="447.07" cy="351.37" rx="13.48" ry="7.8"/>
      </g>
      <g class="cls-15">
        <g>
          <path class="cls-1" d="M461.79,326.05c.15.02.29.05.43.1l-4.67-1.88c-.08-.03-.15-.06-.23-.08-.06-.02-.13-.02-.2-.03-.04,0-.07-.01-.11-.02-.02,0-.04,0-.06,0-.15,0-.3,0-.46.03l-1.95.37,4.67,1.88,1.95-.37c.18-.03.35-.04.51-.03.04,0,.07.01.11.02Z"/>
          <path class="cls-1" d="M453.82,342.61l-4.67-1.88,1.38,1.34c.09.09.18.16.28.23.1.06.2.12.31.16l4.67,1.88c-.21-.09-.41-.21-.59-.39l-1.38-1.34Z"/>
          <path class="cls-1" d="M444.86,348.16v-2.28s-4.66-1.88-4.66-1.88v.36s-3.25-1.31-3.25-1.31c.25.13.5.24.75.35l2.5,1.01v1.87c0,1.05.51,1.87,1.26,2.17l4.67,1.88c-.75-.3-1.27-1.12-1.26-2.17Z"/>
          <path class="cls-1" d="M449.31,339.58c.13-.06.26-.12.39-.19.09-.05.17-.09.25-.14.12-.07.24-.15.36-.22.08-.05.16-.11.24-.17.12-.08.24-.17.35-.26.08-.06.15-.12.23-.18.03-.03.06-.05.1-.08.03-.03.06-.06.09-.09.29-.26.57-.54.84-.84,0,0,0,0,0,0,0,0,0,0,0,0,.22-.25.42-.52.62-.8.02-.03.05-.06.07-.1.03-.05.06-.1.09-.15.13-.2.26-.4.37-.61.03-.05.07-.1.1-.16.01-.03.03-.06.04-.08.15-.28.3-.57.42-.87,0,0,0,0,0-.01,0-.02.01-.04.02-.06.12-.29.23-.59.32-.89.01-.04.03-.08.05-.13.01-.04.02-.09.03-.13.11-.39.21-.78.28-1.18,0,0,0-.01,0-.02.03-.17.04-.34.06-.51.01-.09.03-.19.03-.28.02-.27.04-.55.04-.83,0-3.18-1.54-5.63-3.81-6.55l-4.67-1.88c2.27.92,3.82,3.37,3.81,6.55,0,.28-.01.55-.04.83,0,.09-.02.19-.03.28-.02.18-.04.35-.07.53-.07.4-.16.79-.28,1.18-.02.09-.05.17-.08.26-.1.3-.2.6-.32.89,0,.02-.02.05-.03.07-.13.3-.27.59-.42.87-.04.08-.09.16-.14.24-.12.21-.24.41-.37.61-.05.08-.11.16-.16.24-.2.28-.4.54-.62.8,0,0,0,0-.01.01-.26.3-.54.58-.84.84-.06.06-.12.11-.19.17-.07.06-.15.12-.23.18-.11.09-.23.18-.35.26-.08.06-.16.11-.24.17-.12.08-.24.15-.36.22-.08.05-.17.1-.25.14-.13.07-.26.13-.39.19-.08.04-.16.08-.25.11-.14.06-.28.11-.42.15-.3.1-.61.19-.92.25-.26.05-.52.08-.78.09-.08,0-.16,0-.24,0-.18,0-.36,0-.54-.01-.06,0-.13-.01-.19-.02-.21-.02-.42-.06-.63-.1-.02,0-.04,0-.06-.01-.25-.06-.49-.14-.72-.23l4.67,1.88c.23.09.46.17.7.23,0,0,.01,0,.02,0,.02,0,.04,0,.07.01.2.05.41.08.63.1.06,0,.13.01.19.02.06,0,.12.01.18.02.12,0,.24,0,.35,0,.08,0,.16,0,.24,0,.26-.02.51-.04.78-.09.31-.06.62-.15.92-.25.04-.01.08-.02.11-.03.07-.03.15-.05.22-.08.03-.01.06-.03.08-.04.08-.03.17-.07.25-.11Z"/>
          <path class="cls-1" d="M448.45,316.72c-.38-.15-.77-.28-1.17-.38-.01,0-.02,0-.03,0-.02,0-.04,0-.06-.01-.4-.1-.82-.17-1.24-.21l4.67,1.88c.42.04.84.11,1.24.21.02,0,.04,0,.06.01.24.06.47.15.7.22l1.26.51,1.38-1.87c.09-.12.19-.23.29-.34.04-.04.08-.08.12-.12.09-.08.17-.15.26-.21.04-.03.07-.06.11-.08.13-.08.26-.16.4-.21,0,0,0,0,0,0,.14-.06.29-.1.44-.13.17-.03.34-.04.5-.03.03,0,.06,0,.1.01.15.02.3.05.45.11l-4.67-1.88c-.08-.03-.15-.06-.23-.08-.07-.02-.14-.02-.21-.03-.03,0-.06-.01-.1-.01-.02,0-.03,0-.05,0-.15,0-.3,0-.46.03-.1.02-.21.05-.31.08-.04.01-.08.03-.12.05,0,0,0,0,0,0,0,0,0,0-.01,0-.13.06-.26.13-.39.21-.04.02-.07.06-.11.08-.07.05-.14.09-.2.15-.02.02-.04.04-.06.06-.04.04-.08.08-.12.12-.04.04-.09.08-.13.13-.06.07-.11.14-.17.21l-1.36,1.84-.77-.31Z"/>
          <path class="cls-1" d="M436.2,346.68c-.13-.13-.24-.27-.33-.43-.03-.05-.05-.1-.08-.15-.06-.11-.11-.23-.14-.36-.02-.06-.04-.12-.05-.19-.03-.13-.05-.27-.06-.4,0-.06-.01-.12-.01-.18,0-.2,0-.4.04-.6.03-.16.07-.33.12-.49.01-.03.02-.06.03-.09.05-.13.1-.26.16-.39.01-.03.03-.06.04-.09.08-.15.17-.31.28-.45l1.38-1.87c-.3-.53-.57-1.09-.79-1.68-.22-.59-.41-1.22-.55-1.87l-4.23-1.71c0-.06-.02-.12-.02-.18v-1.24c0-.18.02-.37.05-.54,0-.02.01-.04.02-.07.03-.15.06-.29.11-.43.01-.04.03-.08.04-.11.05-.13.1-.25.16-.37.01-.03.02-.05.04-.08.07-.14.16-.27.25-.39.02-.03.05-.06.07-.09.07-.09.15-.18.22-.26.04-.04.08-.09.13-.13.07-.07.15-.13.23-.19.05-.04.1-.08.15-.11.09-.06.18-.11.28-.15.05-.02.09-.05.14-.07.14-.06.29-.11.44-.14l1.95-.37c.1-.48.23-.96.36-1.43.04-.15.09-.29.13-.44.04-.14.09-.28.14-.42.07-.19.13-.37.2-.56.05-.13.1-.27.16-.4.11-.28.23-.55.36-.82l-1.38-1.35c-.13-.13-.24-.27-.33-.43-.03-.05-.05-.1-.08-.15-.06-.11-.11-.23-.14-.36-.02-.06-.04-.12-.05-.19-.03-.13-.05-.26-.06-.4,0-.06-.01-.12-.01-.18,0-.2,0-.4.04-.6.03-.16.07-.33.12-.49.01-.03.02-.06.03-.09.05-.13.1-.26.16-.39.01-.03.03-.06.04-.09.08-.15.17-.31.28-.45l.76-1.02c.09-.12.19-.23.29-.34.04-.04.08-.08.12-.12.09-.08.18-.15.27-.21.04-.03.07-.06.11-.08.03-.02.06-.03.08-.05l3.77,1.52c.17-.15.34-.29.51-.43.11-.09.21-.18.32-.26.15-.12.31-.23.47-.34.1-.07.21-.15.31-.22.18-.12.36-.23.54-.34.09-.05.18-.11.27-.16.27-.16.55-.3.84-.44v-2.28c0-.18.02-.37.05-.54,0-.02.01-.05.02-.07.03-.15.06-.29.11-.43.01-.04.03-.08.04-.11.05-.13.1-.25.16-.37.01-.03.03-.05.04-.08.07-.14.16-.27.25-.39.02-.03.05-.06.07-.09.07-.09.14-.17.22-.26.04-.04.09-.09.13-.13.07-.07.15-.13.23-.19.05-.04.1-.08.15-.11.09-.06.18-.11.28-.15.05-.02.09-.05.13-.07.14-.06.29-.11.44-.14l1.07-.2c.18-.03.35-.04.51-.03.04,0,.07.01.11.02.15.02.29.05.43.1l-4.67-1.88c-.08-.03-.15-.06-.23-.08-.06-.02-.13-.02-.2-.03-.04,0-.07-.01-.11-.02-.02,0-.04,0-.06,0-.15,0-.3,0-.45.03l-1.07.2c-.12.02-.23.05-.34.09-.02,0-.05.02-.07.03,0,0-.02.01-.03.01-.05.02-.09.05-.14.07-.09.05-.19.09-.28.15-.05.03-.1.07-.15.11-.05.04-.11.07-.16.12-.03.02-.05.05-.07.07-.04.04-.09.09-.13.13-.03.04-.07.07-.11.11-.04.05-.08.1-.12.15-.02.03-.05.06-.07.09-.01.02-.03.03-.04.05-.07.1-.13.2-.19.3,0,.01-.01.03-.02.04-.01.03-.03.05-.04.08-.03.07-.07.13-.1.2-.02.06-.04.12-.06.17-.01.04-.03.08-.04.11,0,.02-.02.05-.03.07-.04.12-.06.24-.08.36,0,.02-.01.05-.02.07,0,0,0,0,0,.01-.03.18-.04.35-.04.53v2.28c-.29.13-.57.28-.84.44-.09.05-.18.11-.27.17-.18.11-.36.22-.54.33-.11.07-.21.15-.31.22-.16.11-.31.22-.47.34-.02.02-.05.04-.07.05l-2.72-1.1c-.08-.03-.15-.06-.23-.08-.07-.02-.14-.02-.21-.03-.03,0-.06-.01-.1-.01-.02,0-.03,0-.05,0-.15,0-.3,0-.46.03-.1.02-.21.05-.31.08-.04.01-.08.03-.13.05,0,0,0,0,0,0,0,0,0,0-.01,0-.13.06-.26.13-.39.21-.04.03-.07.06-.11.08-.07.05-.14.09-.2.15-.02.02-.04.04-.06.06-.04.04-.08.08-.12.12-.04.04-.09.08-.13.13-.06.07-.11.14-.17.21l-.76,1.02s-.04.06-.06.09c-.07.1-.13.2-.19.3-.01.02-.02.04-.03.06-.02.03-.03.06-.04.09-.03.06-.06.11-.08.17-.03.07-.05.15-.08.22-.01.03-.02.06-.03.09,0,.01-.01.03-.02.04-.04.15-.08.29-.1.44,0,0,0,0,0,0-.03.2-.04.4-.04.6,0,.06,0,.12.01.18.01.14.03.27.06.4.01.06.03.13.05.19.04.13.09.24.14.36.03.05.05.1.08.15.09.16.2.3.33.43l1.38,1.35c-.1.21-.19.42-.29.64-.03.06-.05.12-.07.18-.05.13-.11.27-.16.4-.07.19-.14.37-.21.56-.05.14-.09.28-.14.41-.03.09-.06.17-.09.26-.02.06-.03.12-.04.18-.14.47-.26.95-.36,1.43l-1.95.37c-.12.02-.23.05-.34.09-.02,0-.05.02-.07.03,0,0-.02.01-.03.01-.05.02-.09.05-.14.07-.09.05-.19.09-.28.15-.05.03-.1.07-.15.11-.05.04-.11.07-.16.12-.03.02-.05.05-.07.07-.04.04-.09.08-.13.13-.03.04-.07.07-.11.11-.04.05-.08.1-.12.15-.02.03-.05.06-.07.09-.01.02-.03.03-.04.05-.07.1-.13.2-.19.3,0,.01-.01.03-.02.04-.01.03-.03.05-.04.08-.03.07-.07.13-.1.2-.02.06-.04.12-.06.17-.01.04-.03.08-.04.11,0,.02-.02.05-.02.07-.04.12-.06.24-.09.36,0,.02-.01.04-.02.07,0,0,0,0,0,0-.03.18-.04.35-.04.53v1.24c0,1.05.51,1.87,1.26,2.17l3.49,1.41c.24.66.52,1.28.85,1.86l-1.38,1.87s-.04.06-.06.09c-.07.1-.13.2-.19.3-.01.02-.02.04-.03.06-.02.03-.03.06-.04.09-.03.06-.06.11-.08.17-.03.07-.05.15-.08.22-.01.03-.02.06-.03.09,0,.01-.01.03-.02.04-.04.15-.08.29-.1.44,0,0,0,0,0,0-.03.2-.04.4-.04.6,0,.06,0,.12.01.18.01.14.03.27.06.4.01.06.03.13.05.19.04.13.09.24.14.36.03.05.05.1.08.15.09.16.2.3.33.43l.75.74c.18.17.38.3.59.39l4.67,1.88c-.21-.09-.41-.21-.59-.39l-.75-.74Z"/>
        </g>
        <path class="cls-25" d="M461.17,326.07c1.28-.24,2.31.77,2.31,2.26v1.24c0,1.5-1.04,2.9-2.32,3.14l-1.95.37c-.29,1.41-.75,2.78-1.36,4.06l1.38,1.34c.9.88.9,2.6,0,3.82l-.76,1.02c-.45.61-1.05.99-1.64,1.1s-1.18-.04-1.63-.48l-1.38-1.34c-1,.89-2.09,1.64-3.26,2.19v2.28c0,1.49-1.05,2.9-2.32,3.14l-1.07.2c-1.28.24-2.31-.77-2.31-2.26v-2.28c-1.16-.11-2.25-.44-3.25-.95l-1.38,1.87c-.45.61-1.05.99-1.64,1.1-.59.11-1.18-.04-1.63-.48l-.75-.74c-.9-.88-.9-2.59,0-3.82l1.38-1.87c-.6-1.05-1.06-2.25-1.34-3.55l-1.95.37c-1.28.24-2.31-.77-2.31-2.26v-1.24c0-1.49,1.04-2.89,2.32-3.14l1.95-.37c.29-1.41.75-2.78,1.36-4.06l-1.38-1.35c-.9-.88-.9-2.59,0-3.82l.76-1.02c.45-.61,1.05-.99,1.64-1.1.59-.11,1.18.04,1.63.48l1.38,1.35c1-.89,2.09-1.64,3.26-2.19v-2.28c0-1.49,1.05-2.9,2.32-3.14l1.07-.2c1.28-.24,2.31.77,2.31,2.26v2.28c1.15.11,2.25.44,3.25.95l1.38-1.87c.45-.61,1.05-.99,1.64-1.1.59-.11,1.18.04,1.63.48l.75.74c.9.88.9,2.6,0,3.82l-1.38,1.87c.6,1.05,1.06,2.25,1.34,3.55l1.95-.37ZM447.72,340.1c3.86-.73,7-4.98,7.01-9.49,0-4.51-3.11-7.57-6.98-6.83-3.86.73-7,4.98-7,9.49,0,4.51,3.11,7.57,6.97,6.83"/>
      </g>
    </g>
    <g>
      <ellipse class="cls-16" cx="250.07" cy="264.44" rx="64.46" ry="37.3"/>
      <g>
        <path class="cls-21" d="M309.86,161.89v89.84h-.15c-.14,1.18-.38,2.33-.71,3.48h0c-4.8,16.37-29.4,28.84-59.06,28.84s-54.26-12.47-59.06-28.83h0c-.33-1.16-.57-2.31-.71-3.49h-.15v-89.84h119.84Z"/>
        <path class="cls-23" d="M309.86,212.1v39.63h-.15c-.14,1.18-.38,2.33-.71,3.48h0c-12.49,11.23-34.27,18.66-59.06,18.66s-46.57-7.43-59.06-18.65h0c-.33-1.16-.57-2.31-.71-3.49h-.15v-39.63c2.66-2.52,5.78-4.86,9.3-6.97,12.77-7.69,30.73-12.48,50.62-12.48s37.85,4.79,50.62,12.48c3.52,2.11,6.64,4.45,9.3,6.97Z"/>
        <path class="cls-21" d="M309.86,193.35v42.31c-12.33,11.67-34.55,19.45-59.92,19.45s-47.59-7.78-59.92-19.45v-42.31c12.33-11.67,34.55-19.46,59.92-19.46s47.59,7.79,59.92,19.46Z"/>
        <path class="cls-23" d="M309.86,174.59v42.32c-12.33,11.67-34.55,19.45-59.92,19.45s-47.59-7.78-59.92-19.45v-42.32c5.36-5.07,12.59-9.41,21.15-12.7h77.54c8.56,3.29,15.79,7.63,21.15,12.7Z"/>
        <path class="cls-21" d="M309.86,161.89v36.26c-2.66,2.52-5.78,4.86-9.3,6.98-12.77,7.68-30.73,12.47-50.62,12.47s-37.85-4.79-50.62-12.47c-3.52-2.12-6.64-4.46-9.3-6.98v-36.26h119.84Z"/>
        <ellipse class="cls-23" cx="249.94" cy="161.89" rx="59.92" ry="34.67"/>
        <g>
          <ellipse class="cls-22" cx="249.94" cy="161.89" rx="36.52" ry="21.13"/>
          <polygon class="cls-22" points="213.42 153.79 213.42 161.89 286.46 161.89 286.46 153 213.42 153.79"/>
          <ellipse class="cls-14" cx="249.94" cy="153.79" rx="36.52" ry="21.13"/>
          <ellipse class="cls-8" cx="249.94" cy="153.79" rx="30.1" ry="17.41"/>
        </g>
      </g>
    </g>
    <g>
      <g>
        <ellipse class="cls-3" cx="100.13" cy="341.73" rx="13.48" ry="7.8"/>
        <polygon class="cls-3" points="86.65 337.95 86.65 342.06 113.6 342.06 113.6 337.68 86.65 337.95"/>
        <ellipse class="cls-2" cx="100.13" cy="337.68" rx="13.48" ry="7.8"/>
      </g>
      <g class="cls-15">
        <g>
          <path class="cls-11" d="M114.24,314.01c.15.02.29.05.43.1l-4.67-1.88c-.08-.03-.15-.06-.23-.08-.06-.02-.13-.02-.2-.03-.04,0-.07-.01-.11-.02-.02,0-.04,0-.06,0-.15,0-.3,0-.46.03l-1.95.37,4.67,1.88,1.95-.37c.18-.03.35-.04.51-.03.04,0,.07.01.11.02Z"/>
          <path class="cls-11" d="M106.27,330.56l-4.67-1.88,1.38,1.34c.09.09.18.16.28.23.1.06.2.12.31.16l4.67,1.88c-.21-.09-.41-.21-.59-.39l-1.38-1.34Z"/>
          <path class="cls-11" d="M97.31,336.11v-2.28s-4.66-1.88-4.66-1.88v.36s-3.25-1.31-3.25-1.31c.25.13.5.24.75.35l2.5,1.01v1.87c0,1.05.51,1.87,1.26,2.17l4.67,1.88c-.75-.3-1.27-1.12-1.26-2.17Z"/>
          <path class="cls-11" d="M101.76,327.54c.13-.06.26-.12.39-.19.09-.05.17-.09.25-.14.12-.07.24-.15.36-.22.08-.05.16-.11.24-.17.12-.08.24-.17.35-.26.08-.06.15-.12.23-.18.03-.03.06-.05.1-.08.03-.03.06-.06.09-.09.29-.26.57-.54.84-.84,0,0,0,0,0,0,0,0,0,0,0,0,.22-.25.42-.52.62-.8.02-.03.05-.06.07-.1.03-.05.06-.1.09-.15.13-.2.26-.4.37-.61.03-.05.07-.1.1-.16.01-.03.03-.06.04-.08.15-.28.3-.57.42-.87,0,0,0,0,0-.01,0-.02.01-.04.02-.06.12-.29.23-.59.32-.89.01-.04.03-.08.05-.13.01-.04.02-.09.03-.13.11-.39.21-.78.28-1.18,0,0,0-.01,0-.02.03-.17.04-.34.06-.51.01-.09.03-.19.03-.28.02-.27.04-.55.04-.83,0-3.18-1.54-5.63-3.81-6.55l-4.67-1.88c2.27.92,3.82,3.37,3.81,6.55,0,.28-.01.55-.04.83,0,.09-.02.19-.03.28-.02.18-.04.35-.07.53-.07.4-.16.79-.28,1.18-.02.09-.05.17-.08.26-.1.3-.2.6-.32.89,0,.02-.02.05-.03.07-.13.3-.27.59-.42.87-.04.08-.09.16-.14.24-.12.21-.24.41-.37.61-.05.08-.11.16-.16.24-.2.28-.4.54-.62.8,0,0,0,0-.01.01-.26.3-.54.58-.84.84-.06.06-.12.11-.19.17-.07.06-.15.12-.23.18-.11.09-.23.18-.35.26-.08.06-.16.11-.24.17-.12.08-.24.15-.36.22-.08.05-.17.1-.25.14-.13.07-.26.13-.39.19-.08.04-.16.08-.25.11-.14.06-.28.11-.42.15-.3.1-.61.19-.92.25-.26.05-.52.08-.78.09-.08,0-.16,0-.24,0-.18,0-.36,0-.54-.01-.06,0-.13-.01-.19-.02-.21-.02-.42-.06-.63-.1-.02,0-.04,0-.06-.01-.25-.06-.49-.14-.72-.23l4.67,1.88c.23.09.46.17.7.23,0,0,.01,0,.02,0,.02,0,.04,0,.07.01.2.05.41.08.63.1.06,0,.13.01.19.02.06,0,.12.01.18.02.12,0,.24,0,.35,0,.08,0,.16,0,.24,0,.26-.02.51-.04.78-.09.31-.06.62-.15.92-.25.04-.01.08-.02.11-.03.07-.03.15-.05.22-.08.03-.01.06-.03.08-.04.08-.03.17-.07.25-.11Z"/>
          <path class="cls-11" d="M100.9,304.68c-.38-.15-.77-.28-1.17-.38-.01,0-.02,0-.03,0-.02,0-.04,0-.06-.01-.4-.1-.82-.17-1.24-.21l4.67,1.88c.42.04.84.11,1.24.21.02,0,.04,0,.06.01.24.06.47.15.7.22l1.26.51,1.38-1.87c.09-.12.19-.23.29-.34.04-.04.08-.08.12-.12.09-.08.17-.15.26-.21.04-.03.07-.06.11-.08.13-.08.26-.16.4-.21,0,0,0,0,0,0,.14-.06.29-.1.44-.13.17-.03.34-.04.5-.03.03,0,.06,0,.1.01.15.02.3.05.45.11l-4.67-1.88c-.08-.03-.15-.06-.23-.08-.07-.02-.14-.02-.21-.03-.03,0-.06-.01-.1-.01-.02,0-.03,0-.05,0-.15,0-.3,0-.46.03-.1.02-.21.05-.31.08-.04.01-.08.03-.12.05,0,0,0,0,0,0,0,0,0,0,0,0-.13.06-.26.13-.39.21-.04.02-.07.06-.11.08-.07.05-.14.09-.2.15-.02.02-.04.04-.06.06-.04.04-.08.08-.12.12-.04.04-.09.08-.13.13-.06.07-.11.14-.17.21l-1.36,1.84-.77-.31Z"/>
          <path class="cls-11" d="M88.66,334.64c-.13-.13-.24-.27-.33-.43-.03-.05-.05-.1-.08-.15-.06-.11-.1-.23-.14-.36-.02-.06-.04-.12-.05-.19-.03-.13-.05-.27-.06-.4,0-.06-.01-.12-.01-.18,0-.2,0-.4.04-.6.03-.16.07-.33.12-.49.01-.03.02-.06.03-.09.05-.13.1-.26.16-.39.01-.03.03-.06.04-.09.08-.15.17-.31.28-.45l1.38-1.87c-.3-.53-.57-1.09-.79-1.68-.22-.59-.41-1.22-.55-1.87l-4.23-1.71c0-.06-.02-.12-.02-.18v-1.24c0-.18.02-.37.05-.54,0-.02.01-.04.02-.07.03-.15.06-.29.11-.43.01-.04.03-.08.04-.11.05-.13.1-.25.16-.37.01-.03.02-.05.04-.08.07-.14.16-.27.25-.39.02-.03.05-.06.07-.09.07-.09.14-.18.22-.26.04-.04.08-.09.13-.13.07-.07.15-.13.23-.19.05-.04.1-.08.15-.11.09-.06.18-.11.28-.15.05-.02.09-.05.14-.07.14-.06.29-.11.44-.14l1.95-.37c.1-.48.23-.96.36-1.43.04-.15.08-.29.13-.43.04-.14.09-.28.14-.42.07-.19.13-.37.2-.56.05-.13.1-.27.16-.4.11-.28.23-.55.36-.82l-1.38-1.35c-.13-.13-.24-.27-.33-.43-.03-.05-.05-.1-.08-.15-.06-.11-.1-.23-.14-.36-.02-.06-.04-.12-.05-.19-.03-.13-.05-.26-.06-.4,0-.06-.01-.12-.01-.18,0-.2,0-.4.04-.6.03-.16.07-.33.12-.49.01-.03.02-.06.03-.09.05-.13.1-.26.16-.39.01-.03.03-.06.04-.09.08-.15.17-.31.28-.45l.76-1.02c.09-.12.19-.23.29-.34.04-.04.08-.08.12-.12.09-.08.18-.15.27-.21.04-.03.07-.06.11-.08.03-.02.06-.03.08-.05l3.77,1.52c.17-.15.34-.29.51-.43.11-.09.21-.18.32-.26.15-.12.31-.23.47-.34.1-.07.21-.15.31-.22.18-.12.36-.23.54-.34.09-.05.18-.11.27-.16.27-.16.55-.3.84-.44v-2.28c0-.18.02-.37.05-.54,0-.02.01-.05.02-.07.03-.15.06-.29.11-.43.01-.04.03-.08.04-.11.05-.13.1-.25.16-.37.01-.03.03-.05.04-.08.07-.14.16-.27.25-.39.02-.03.05-.06.07-.09.07-.09.14-.17.22-.26.04-.04.09-.09.13-.13.07-.07.15-.13.23-.19.05-.04.1-.08.15-.11.09-.06.18-.11.28-.15.05-.02.09-.05.13-.07.14-.06.29-.11.44-.14l1.07-.2c.18-.03.35-.04.51-.03.04,0,.07.01.11.02.15.02.29.05.43.1l-4.67-1.88c-.08-.03-.15-.06-.23-.08-.06-.02-.13-.02-.2-.03-.04,0-.07-.01-.11-.02-.02,0-.04,0-.06,0-.15,0-.3,0-.45.03l-1.07.2c-.12.02-.23.05-.34.09-.02,0-.05.02-.07.03,0,0-.02.01-.03.01-.05.02-.09.05-.14.07-.09.05-.19.09-.28.15-.05.03-.1.07-.15.11-.05.04-.11.07-.16.12-.03.02-.05.05-.07.07-.04.04-.09.09-.13.13-.03.04-.07.07-.11.11-.04.05-.08.1-.12.15-.02.03-.05.06-.07.09-.01.02-.03.03-.04.05-.07.1-.13.2-.19.3,0,.01-.01.03-.02.04-.01.03-.03.05-.04.08-.03.07-.07.13-.1.2-.02.06-.04.12-.06.17-.01.04-.03.08-.04.11,0,.02-.02.05-.03.07-.04.12-.06.24-.08.36,0,.02-.01.05-.02.07,0,0,0,0,0,.01-.03.18-.04.35-.04.53v2.28c-.29.13-.57.28-.84.44-.09.05-.18.11-.27.17-.18.11-.36.22-.54.33-.11.07-.21.15-.31.22-.16.11-.31.22-.47.34-.02.02-.05.04-.07.05l-2.72-1.1c-.08-.03-.15-.06-.23-.08-.07-.02-.14-.02-.21-.03-.03,0-.06-.01-.1-.01-.02,0-.03,0-.05,0-.15,0-.3,0-.46.03-.1.02-.21.05-.31.08-.04.01-.08.03-.13.05,0,0,0,0,0,0,0,0,0,0-.01,0-.13.06-.26.13-.39.21-.04.03-.07.06-.11.08-.07.05-.14.09-.2.15-.02.02-.04.04-.06.06-.04.04-.08.08-.12.12-.04.04-.09.08-.13.13-.06.07-.11.14-.17.21l-.76,1.02s-.04.06-.06.09c-.07.1-.13.2-.19.3-.01.02-.02.04-.03.06-.02.03-.03.06-.04.09-.03.06-.06.11-.08.17-.03.07-.05.15-.08.22-.01.03-.02.06-.03.09,0,.01-.01.03-.02.04-.04.15-.08.29-.1.44,0,0,0,0,0,0-.03.2-.04.4-.04.6,0,.06,0,.12.01.18.01.14.03.27.06.4.01.06.03.13.05.19.04.13.09.24.14.36.03.05.05.1.08.15.09.16.2.3.33.43l1.38,1.35c-.1.21-.19.42-.29.64-.03.06-.05.12-.07.18-.05.13-.11.27-.16.4-.07.19-.14.37-.21.56-.05.14-.09.28-.14.41-.03.09-.06.17-.09.26-.02.06-.03.12-.04.18-.14.47-.26.95-.36,1.43l-1.95.37c-.12.02-.23.05-.34.09-.02,0-.05.02-.07.03,0,0-.02.01-.03.01-.05.02-.09.05-.14.07-.09.05-.19.09-.28.15-.05.03-.1.07-.15.11-.05.04-.11.07-.16.12-.03.02-.05.05-.07.07-.04.04-.09.08-.13.13-.03.04-.07.07-.11.11-.04.05-.08.1-.12.15-.02.03-.05.06-.07.09-.01.02-.03.03-.04.05-.07.1-.13.2-.19.3,0,.01-.01.03-.02.04-.01.03-.03.05-.04.08-.03.07-.07.13-.1.2-.02.06-.04.12-.06.17-.01.04-.03.08-.04.11,0,.02-.02.05-.02.07-.04.12-.06.24-.09.36,0,.02-.01.04-.02.07,0,0,0,0,0,0-.03.18-.04.35-.04.54v1.24c0,1.05.51,1.87,1.26,2.17l3.49,1.41c.24.66.52,1.28.85,1.86l-1.38,1.87s-.04.06-.06.09c-.07.1-.13.2-.19.3-.01.02-.02.04-.03.06-.02.03-.03.06-.04.09-.03.06-.06.11-.08.17-.03.07-.05.15-.08.22-.01.03-.02.06-.03.09,0,.01-.01.03-.02.04-.04.15-.08.29-.1.44,0,0,0,0,0,0-.03.2-.04.4-.04.6,0,.06,0,.12.01.18.01.14.03.27.06.4.01.06.03.13.05.19.04.13.09.24.14.36.03.05.05.1.08.15.09.16.2.3.33.43l.75.74c.18.17.38.3.59.39l4.67,1.88c-.21-.09-.41-.21-.59-.39l-.75-.74Z"/>
        </g>
        <path class="cls-14" d="M113.63,314.02c1.28-.24,2.31.77,2.31,2.26v1.24c0,1.5-1.04,2.9-2.32,3.14l-1.95.37c-.29,1.41-.75,2.78-1.36,4.06l1.38,1.34c.9.88.9,2.6,0,3.82l-.76,1.02c-.45.61-1.05.99-1.64,1.1s-1.18-.04-1.63-.48l-1.38-1.34c-1,.89-2.09,1.64-3.26,2.19v2.28c0,1.49-1.05,2.9-2.32,3.14l-1.07.2c-1.28.24-2.31-.77-2.31-2.26v-2.28c-1.16-.11-2.25-.44-3.25-.95l-1.38,1.87c-.45.61-1.05.99-1.64,1.1-.59.11-1.18-.04-1.63-.48l-.75-.74c-.9-.88-.9-2.59,0-3.82l1.38-1.87c-.6-1.05-1.06-2.25-1.34-3.55l-1.95.37c-1.28.24-2.31-.77-2.31-2.26v-1.24c0-1.49,1.04-2.89,2.32-3.14l1.95-.37c.29-1.41.75-2.78,1.36-4.06l-1.38-1.35c-.9-.88-.9-2.59,0-3.82l.76-1.02c.45-.61,1.05-.99,1.64-1.1.59-.11,1.18.04,1.63.48l1.38,1.35c1-.89,2.09-1.64,3.26-2.19v-2.28c0-1.49,1.05-2.9,2.32-3.14l1.07-.2c1.28-.24,2.31.77,2.31,2.26v2.28c1.15.11,2.25.44,3.25.95l1.38-1.87c.45-.61,1.05-.99,1.64-1.1.59-.11,1.18.04,1.63.48l.75.74c.9.88.9,2.6,0,3.82l-1.38,1.87c.6,1.05,1.06,2.25,1.34,3.55l1.95-.37ZM100.17,328.06c3.86-.73,7-4.98,7.01-9.49s-3.11-7.57-6.98-6.83c-3.86.73-7,4.98-7,9.49s3.11,7.57,6.97,6.83"/>
      </g>
    </g>
  </g>
</svg>