<svg width="80" height="15" viewBox="0 0 80 15" fill="none" xmlns="http://www.w3.org/2000/svg">
<path d="M6.6611 5.46025C6.27213 4.33054 5.25108 3.27929 3.66279 3.27929C1.53967 3.27929 0 5.11506 0 7.68828C0 10.2615 1.52346 12.113 3.66279 12.113C4.99177 12.113 6.15868 11.2814 6.6611 10.1203V11.9247H8.67077V0H6.6611V5.46025ZM4.39211 10.7322C2.88485 10.7322 2.0583 9.55544 2.0583 7.68828C2.0583 5.83682 2.88485 4.66004 4.39211 4.66004C5.89936 4.66004 6.72592 5.83682 6.72592 7.68828C6.72592 9.55544 5.89936 10.7322 4.39211 10.7322Z" fill="#F1E1D4"/>
<path d="M13.7835 10.7322L11.1255 3.46757H9.08342L11.8872 11.0146H13.6862L12.4059 15H14.4966L18.2404 3.46757H16.1173L13.7835 10.7322Z" fill="#F1E1D4"/>
<path d="M28.8897 3.27929C27.3338 3.27929 26.491 4.33054 26.1345 5.36611C25.8104 4.28347 24.9352 3.27929 23.4279 3.27929C21.9531 3.27929 21.1589 4.18933 20.77 5.20921V3.46757H18.7603V11.9247H20.7862V7.0136C20.7862 5.39749 21.3696 4.67573 22.5203 4.67573C23.6548 4.67573 24.2383 5.39749 24.2383 6.98222V11.9247H26.2641V7.0136C26.2641 5.39749 26.8476 4.67573 27.9983 4.67573C29.1328 4.67573 29.7162 5.39749 29.7162 6.98222V11.9247H31.7421V6.60565C31.7421 4.67573 30.8345 3.27929 28.8897 3.27929Z" fill="#F1E1D4"/>
<path d="M41.2148 7.64121C41.2148 5.00523 39.5292 3.27929 36.9523 3.27929C34.3268 3.27929 32.6574 5.09937 32.6574 7.68828C32.6574 10.2615 34.2782 12.113 36.9523 12.113C38.9944 12.113 40.4692 11.2343 41.0203 9.42992H38.962C38.6541 10.2458 38.0868 10.7322 36.9685 10.7322C35.7368 10.7322 34.8778 9.90063 34.7157 8.26883H41.1661C41.1986 8.04916 41.2148 7.8295 41.2148 7.64121ZM36.9523 4.66004C38.2003 4.66004 39.043 5.55439 39.1403 6.90377H34.732C34.9426 5.3818 35.7692 4.66004 36.9523 4.66004Z" fill="#F1E1D4"/>
<path d="M46.9751 3.27929C45.4678 3.27929 44.6089 4.15795 44.2037 5.19351V3.46757H42.194V11.9247H44.2199V7.0136C44.2199 5.39749 44.933 4.67573 46.0675 4.67573C47.2182 4.67573 47.9151 5.3818 47.9151 6.98222V11.9247H49.941V6.60565C49.941 4.7228 48.9848 3.27929 46.9751 3.27929Z" fill="#F1E1D4"/>
<path d="M54.6286 12.113C56.8652 12.113 58.5021 11.1402 58.5021 9.4613C58.5021 8.11193 57.708 7.32741 55.8766 6.95084L54.499 6.66841C53.4455 6.44875 52.9107 6.24477 52.9107 5.66423C52.9107 5.02092 53.7048 4.66004 54.58 4.66004C55.3579 4.66004 56.0711 5.00523 56.298 5.63285H58.34C57.9673 4.06381 56.4114 3.27929 54.5638 3.27929C52.5703 3.27929 50.9496 4.26778 50.9496 5.82113C50.9496 7.10774 51.9221 7.81381 53.5103 8.14331L54.8879 8.44142C56.1521 8.69247 56.5573 9.00628 56.5573 9.64958C56.5573 10.3086 55.909 10.7322 54.6772 10.7322C53.8507 10.7322 53.0079 10.4341 52.7972 9.41423H50.7551C51.0145 11.2029 52.5865 12.113 54.6286 12.113Z" fill="#F1E1D4"/>
<path d="M61.5297 2.16527V0H59.4065V2.16527H61.5297ZM61.481 11.9247V3.46757H59.4552V11.9247H61.481Z" fill="#F1E1D4"/>
<path d="M66.8712 12.113C69.5777 12.113 71.2795 10.3086 71.2795 7.68828C71.2795 5.08368 69.5777 3.27929 66.8712 3.27929C64.1808 3.27929 62.479 5.08368 62.479 7.68828C62.479 10.3086 64.1808 12.113 66.8712 12.113ZM66.8712 10.7322C65.3801 10.7322 64.5373 9.55544 64.5373 7.68828C64.5373 5.83682 65.3801 4.66004 66.8712 4.66004C68.3784 4.66004 69.205 5.83682 69.205 7.68828C69.205 9.55544 68.3784 10.7322 66.8712 10.7322Z" fill="#F1E1D4"/>
<path d="M77.0341 3.27929C75.5268 3.27929 74.6679 4.15795 74.2627 5.19351V3.46757H72.253V11.9247H74.2789V7.0136C74.2789 5.39749 74.992 4.67573 76.1265 4.67573C77.2772 4.67573 77.9741 5.3818 77.9741 6.98222V11.9247H80V6.60565C80 4.7228 79.0438 3.27929 77.0341 3.27929Z" fill="#F1E1D4"/>
</svg>
